<svg width="282" height="260" viewBox="0 0 282 260" fill="none" xmlns="http://www.w3.org/2000/svg">
<g clip-path="url(#clip0_345_3008)">
<path d="M199.871 237.961H71.2429C68.188 237.958 65.2594 236.743 63.0997 234.582C60.94 232.422 59.7257 229.493 59.7234 226.438V176.994C59.4571 177.298 59.1784 177.597 58.8914 177.889V226.438C58.8943 229.713 60.1965 232.853 62.5121 235.17C64.8277 237.486 67.9676 238.789 71.2429 238.793H200.233C200.108 238.519 199.988 238.24 199.871 237.961ZM59.7234 55.2053C59.7257 52.1505 60.94 49.2214 63.0997 47.0609C65.2594 44.9004 68.188 43.6851 71.2429 43.6816H114.101C114.022 43.4029 113.947 43.1283 113.876 42.8496H71.2429C67.9676 42.8537 64.8277 44.1569 62.5121 46.4733C60.1965 48.7897 58.8943 51.93 58.8914 55.2053V131.004C59.1784 131.295 59.453 131.594 59.7234 131.898V55.2053ZM232.437 64.9235L205.562 43.6359C204.921 43.1272 204.126 42.8502 203.307 42.8496H179.391C179.324 43.1283 179.249 43.4071 179.17 43.6816H203.307C203.938 43.6832 204.55 43.8955 205.046 44.2849L231.921 65.5766C232.176 65.7778 232.382 66.0344 232.523 66.3271C232.665 66.6197 232.738 66.9407 232.736 67.2656V191.168C233.015 191.176 233.294 191.197 233.568 191.218V67.2656C233.57 66.815 233.469 66.3698 233.273 65.964C233.077 65.5582 232.791 65.2024 232.437 64.9235Z" fill="#3F3D56"/>
<path d="M232.082 66.0225H210.397C209.613 66.0225 208.837 65.8681 208.112 65.5681C207.388 65.2681 206.73 64.8284 206.176 64.2742C205.622 63.7199 205.182 63.0619 204.882 62.3377C204.582 61.6135 204.428 60.8373 204.428 60.0535V44.0371C204.428 43.967 204.447 43.8983 204.485 43.8389C204.522 43.7795 204.575 43.7318 204.638 43.7013C204.701 43.6707 204.772 43.6586 204.842 43.6663C204.911 43.674 204.977 43.7012 205.032 43.7447L232.313 65.357C232.374 65.4051 232.418 65.4709 232.44 65.5453C232.462 65.6196 232.46 65.6989 232.434 65.772C232.409 65.8452 232.361 65.9086 232.298 65.9535C232.235 65.9983 232.159 66.0225 232.082 66.0225Z" fill="#E6E6E6"/>
<path d="M232.082 66.4385H210.397C208.704 66.4366 207.081 65.7633 205.884 64.5662C204.687 63.3692 204.014 61.7463 204.012 60.0534V44.0372C204.012 43.8889 204.053 43.7436 204.132 43.6179C204.211 43.4923 204.324 43.3914 204.457 43.3268C204.591 43.2622 204.74 43.2366 204.887 43.2528C205.034 43.269 205.174 43.3264 205.291 43.4185L232.572 65.031C232.7 65.1327 232.794 65.2719 232.84 65.4292C232.885 65.5865 232.881 65.7542 232.827 65.9089C232.773 66.0637 232.672 66.1978 232.539 66.2927C232.405 66.3876 232.246 66.4386 232.082 66.4385ZM204.844 44.126V60.0534C204.845 61.5257 205.431 62.9372 206.472 63.9782C207.513 65.0192 208.924 65.6048 210.397 65.6065H231.958L204.844 44.126Z" fill="#3F3D56"/>
<path d="M189.036 93.6292H125.242C124.451 93.6292 123.691 93.3147 123.132 92.755C122.572 92.1953 122.258 91.4362 122.258 90.6447C122.258 89.8531 122.572 89.094 123.132 88.5343C123.691 87.9746 124.451 87.6602 125.242 87.6602H189.036C189.827 87.6602 190.586 87.9746 191.146 88.5343C191.706 89.094 192.02 89.8531 192.02 90.6447C192.02 91.4362 191.706 92.1953 191.146 92.755C190.586 93.3147 189.827 93.6292 189.036 93.6292Z" fill="#CCCCCC"/>
<path d="M201.347 103.702H125.242C124.451 103.702 123.691 103.388 123.132 102.828C122.572 102.269 122.258 101.509 122.258 100.718C122.258 99.9264 122.572 99.1672 123.132 98.6075C123.691 98.0478 124.451 97.7334 125.242 97.7334H201.347C202.138 97.7334 202.898 98.0478 203.457 98.6075C204.017 99.1672 204.331 99.9264 204.331 100.718C204.331 101.509 204.017 102.269 203.457 102.828C202.898 103.388 202.138 103.702 201.347 103.702Z" fill="#CCCCCC"/>
<path d="M189.036 138.77H125.242C124.451 138.77 123.691 138.455 123.132 137.896C122.572 137.336 122.258 136.577 122.258 135.785C122.258 134.994 122.572 134.235 123.132 133.675C123.691 133.115 124.451 132.801 125.242 132.801H189.036C189.827 132.801 190.586 133.115 191.146 133.675C191.706 134.235 192.02 134.994 192.02 135.785C192.02 136.577 191.706 137.336 191.146 137.896C190.586 138.455 189.827 138.77 189.036 138.77Z" fill="#CCCCCC"/>
<path d="M201.347 148.842H125.242C124.451 148.842 123.691 148.528 123.132 147.968C122.572 147.408 122.258 146.649 122.258 145.858C122.258 145.066 122.572 144.307 123.132 143.747C123.691 143.187 124.451 142.873 125.242 142.873H201.347C202.138 142.873 202.898 143.187 203.457 143.747C204.017 144.307 204.331 145.066 204.331 145.858C204.331 146.649 204.017 147.408 203.457 147.968C202.898 148.528 202.138 148.842 201.347 148.842Z" fill="#CCCCCC"/>
<path d="M189.036 183.91H125.242C124.85 183.91 124.462 183.833 124.1 183.683C123.738 183.533 123.409 183.313 123.132 183.036C122.855 182.759 122.635 182.43 122.485 182.068C122.335 181.706 122.258 181.318 122.258 180.926C122.258 180.534 122.335 180.146 122.485 179.784C122.635 179.422 122.855 179.093 123.132 178.816C123.409 178.538 123.738 178.319 124.1 178.169C124.462 178.019 124.85 177.941 125.242 177.941H189.036C189.827 177.941 190.586 178.256 191.146 178.816C191.706 179.375 192.02 180.134 192.02 180.926C192.02 181.717 191.706 182.477 191.146 183.036C190.586 183.596 189.827 183.91 189.036 183.91Z" fill="#CCCCCC"/>
<path d="M201.347 193.983H125.242C124.85 193.983 124.462 193.905 124.1 193.755C123.738 193.605 123.409 193.386 123.132 193.109C122.855 192.831 122.635 192.502 122.485 192.14C122.335 191.778 122.258 191.39 122.258 190.998C122.258 190.606 122.335 190.218 122.485 189.856C122.635 189.494 122.855 189.165 123.132 188.888C123.409 188.611 123.738 188.391 124.1 188.241C124.462 188.091 124.85 188.014 125.242 188.014H201.347C201.739 188.014 202.127 188.091 202.489 188.241C202.851 188.391 203.18 188.611 203.457 188.888C203.734 189.165 203.954 189.494 204.104 189.856C204.254 190.218 204.331 190.606 204.331 190.998C204.331 191.39 204.254 191.778 204.104 192.14C203.954 192.502 203.734 192.831 203.457 193.109C203.18 193.386 202.851 193.605 202.489 193.755C202.127 193.905 201.739 193.983 201.347 193.983Z" fill="#CCCCCC"/>
<path d="M98.6769 106.229C104.503 106.229 109.225 101.506 109.225 95.6804C109.225 89.8546 104.503 85.1318 98.6769 85.1318C92.8511 85.1318 88.1283 89.8546 88.1283 95.6804C88.1283 101.506 92.8511 106.229 98.6769 106.229Z" fill="#B4DE95"/>
<path d="M97.6315 99.7044C97.3942 99.7048 97.1632 99.628 96.9734 99.4856L96.9616 99.4768L94.4826 97.5804C94.3675 97.4925 94.2709 97.3827 94.1983 97.2574C94.1257 97.1321 94.0785 96.9937 94.0594 96.8501C94.0403 96.7066 94.0497 96.5607 94.0871 96.4208C94.1245 96.2809 94.1891 96.1497 94.2772 96.0348C94.3653 95.9198 94.4752 95.8234 94.6006 95.751C94.726 95.6786 94.8645 95.6316 95.0081 95.6127C95.1516 95.5939 95.2975 95.6035 95.4374 95.6411C95.5772 95.6787 95.7083 95.7435 95.8231 95.8318L97.4288 97.0631L101.223 92.1129C101.311 91.9981 101.421 91.9018 101.546 91.8294C101.671 91.7571 101.81 91.7101 101.953 91.6911C102.096 91.6722 102.242 91.6817 102.382 91.719C102.521 91.7564 102.652 91.8209 102.767 91.9089L102.744 91.9419L102.768 91.9092C103 92.0871 103.151 92.3497 103.189 92.6392C103.228 92.9287 103.149 93.2215 102.972 93.4534L98.5088 99.2734C98.4055 99.4075 98.2728 99.516 98.1208 99.5905C97.9689 99.665 97.8018 99.7035 97.6325 99.703L97.6315 99.7044Z" fill="white"/>
<path d="M98.6769 151.37C104.503 151.37 109.225 146.647 109.225 140.821C109.225 134.995 104.503 130.272 98.6769 130.272C92.8511 130.272 88.1283 134.995 88.1283 140.821C88.1283 146.647 92.8511 151.37 98.6769 151.37Z" fill="#E6E6E6"/>
<path d="M97.6315 144.845C97.3942 144.845 97.1632 144.769 96.9734 144.626L96.9616 144.617L94.4825 142.721C94.2507 142.543 94.0989 142.281 94.0606 141.991C94.0224 141.701 94.1007 141.408 94.2785 141.176C94.4563 140.945 94.7189 140.793 95.0086 140.755C95.2982 140.716 95.5912 140.795 95.8231 140.972L97.4288 142.204L101.223 137.253C101.311 137.139 101.421 137.042 101.546 136.97C101.671 136.898 101.81 136.851 101.953 136.832C102.096 136.813 102.242 136.822 102.382 136.86C102.521 136.897 102.652 136.962 102.767 137.05L102.744 137.082L102.768 137.05C103 137.228 103.151 137.49 103.189 137.78C103.228 138.069 103.149 138.362 102.972 138.594L98.5088 144.414C98.4055 144.548 98.2728 144.657 98.1208 144.731C97.9689 144.806 97.8018 144.844 97.6325 144.844L97.6315 144.845Z" fill="white"/>
<path d="M98.6769 196.511C104.503 196.511 109.225 191.788 109.225 185.963C109.225 180.137 104.503 175.414 98.6769 175.414C92.8511 175.414 88.1283 180.137 88.1283 185.963C88.1283 191.788 92.8511 196.511 98.6769 196.511Z" fill="#E6E6E6"/>
<path d="M97.6315 189.987C97.3942 189.987 97.1632 189.91 96.9734 189.768L96.9616 189.759L94.4826 187.863C94.3675 187.775 94.2709 187.665 94.1983 187.54C94.1257 187.414 94.0785 187.276 94.0594 187.132C94.0403 186.989 94.0497 186.843 94.0871 186.703C94.1245 186.563 94.1891 186.432 94.2772 186.317C94.3653 186.202 94.4752 186.106 94.6006 186.033C94.726 185.961 94.8645 185.914 95.0081 185.895C95.1516 185.876 95.2975 185.886 95.4374 185.923C95.5772 185.961 95.7083 186.026 95.8231 186.114L97.4288 187.345L101.223 182.395C101.311 182.28 101.421 182.184 101.546 182.112C101.671 182.039 101.81 181.992 101.953 181.973C102.096 181.954 102.242 181.964 102.382 182.001C102.521 182.039 102.652 182.103 102.767 182.191L102.744 182.224L102.768 182.191C103 182.369 103.151 182.632 103.189 182.921C103.228 183.211 103.149 183.504 102.972 183.736L98.5088 189.556C98.4055 189.69 98.2728 189.798 98.1208 189.873C97.9689 189.947 97.8018 189.986 97.6325 189.985L97.6315 189.987Z" fill="white"/>
<path d="M246.988 255.569C246.392 255.88 245.787 256.175 245.171 256.453C244.611 256.706 244.041 256.944 243.463 257.167C243.251 257.247 243.036 257.328 242.821 257.409C241.121 258.025 239.375 258.507 237.599 258.849C236.719 259.021 235.829 259.157 234.926 259.256C234.181 259.34 233.429 259.4 232.668 259.436C232.127 259.463 231.585 259.475 231.04 259.475C228.881 259.475 226.726 259.274 224.604 258.872C224.051 258.772 223.51 258.653 222.968 258.522C220.349 257.895 217.814 256.959 215.415 255.734C215.2 255.627 214.985 255.512 214.77 255.4C214.451 255.231 214.14 255.055 213.829 254.87C213.979 254.663 214.14 254.46 214.305 254.26C216.102 252.033 218.348 250.21 220.897 248.909C223.445 247.609 226.239 246.86 229.097 246.711C231.954 246.563 234.811 247.018 237.481 248.047C240.151 249.077 242.573 250.657 244.591 252.686C245.292 253.388 245.941 254.14 246.535 254.936C246.692 255.143 246.842 255.354 246.988 255.569Z" fill="#B4DE95"/>
<path d="M231.806 238.701C241.119 238.701 248.668 231.152 248.668 221.84C248.668 212.528 241.119 204.979 231.806 204.979C222.494 204.979 214.945 212.528 214.945 221.84C214.945 231.152 222.494 238.701 231.806 238.701Z" fill="#2F2E41"/>
<path d="M236.291 238.725C242.373 235.401 244.608 227.776 241.283 221.694C237.959 215.613 230.334 213.378 224.252 216.702C218.171 220.027 215.936 227.652 219.26 233.733C222.584 239.815 230.209 242.05 236.291 238.725Z" fill="#A0616A"/>
<path d="M243.458 219.82C240.59 221.796 237.187 222.848 233.704 222.834C234.946 223.696 236.36 224.278 237.849 224.54C233.219 225.533 228.433 225.56 223.791 224.619C222.759 224.453 221.764 224.111 220.848 223.608C220.392 223.353 219.994 223.005 219.681 222.587C219.368 222.168 219.147 221.688 219.032 221.179C218.723 219.417 220.096 217.816 221.523 216.737C223.708 215.11 226.226 213.99 228.897 213.456C231.568 212.922 234.324 212.989 236.966 213.651C238.691 214.097 240.419 214.85 241.54 216.236C242.66 217.621 242.992 219.757 241.925 221.183L243.458 219.82Z" fill="#2F2E41"/>
<path d="M233.568 190.444C233.294 190.423 233.015 190.407 232.736 190.394C232.175 190.365 231.609 190.353 231.039 190.353C225.372 190.353 219.792 191.747 214.79 194.411C209.788 197.076 205.519 200.93 202.357 205.633C199.196 210.337 197.24 215.745 196.661 221.383C196.082 227.021 196.899 232.714 199.039 237.961C199.151 238.24 199.268 238.519 199.393 238.794C202.252 245.27 207.018 250.721 213.055 254.419L213.275 254.548C213.462 254.66 213.645 254.769 213.828 254.868C214.14 255.056 214.452 255.23 214.769 255.401C214.985 255.513 215.201 255.626 215.413 255.734C217.812 256.959 220.348 257.894 222.968 258.521C223.509 258.654 224.05 258.771 224.603 258.87C226.725 259.272 228.88 259.474 231.039 259.474C231.584 259.474 232.125 259.461 232.67 259.436C233.427 259.403 234.18 259.341 234.925 259.257C235.827 259.158 236.719 259.022 237.6 258.85C239.375 258.507 241.12 258.026 242.821 257.41C243.037 257.327 243.253 257.248 243.461 257.165C244.044 256.944 244.609 256.707 245.171 256.453C245.787 256.175 246.393 255.879 246.989 255.567C252.966 252.435 257.907 247.638 261.213 241.756C261.228 241.724 261.244 241.694 261.262 241.664C264.077 236.591 265.569 230.891 265.601 225.09C265.633 219.288 264.203 213.572 261.444 208.469C258.684 203.366 254.684 199.04 249.813 195.889C244.941 192.739 239.354 190.866 233.568 190.444ZM264.237 231.255C263.569 234.745 262.352 238.107 260.63 241.215C260.601 241.269 260.572 241.323 260.543 241.373C257.305 247.169 252.434 251.886 246.536 254.935C245.945 255.243 245.347 255.531 244.742 255.8C244.239 256.025 243.723 256.241 243.203 256.441C242.987 256.524 242.762 256.612 242.542 256.686C241.073 257.223 239.567 257.654 238.036 257.976C236.902 258.219 235.754 258.399 234.6 258.517C233.889 258.596 233.169 258.65 232.441 258.675C231.975 258.696 231.509 258.708 231.039 258.708C228.949 258.709 226.864 258.514 224.811 258.126C223.562 257.897 222.327 257.594 221.113 257.219C219.263 256.649 217.467 255.921 215.742 255.043C215.542 254.939 215.343 254.835 215.147 254.727C214.864 254.577 214.581 254.423 214.307 254.261C214.099 254.145 213.891 254.02 213.687 253.899C213.566 253.828 213.45 253.758 213.329 253.683C207.582 250.13 203.023 244.947 200.233 238.794C200.108 238.519 199.988 238.24 199.871 237.962C197.721 232.826 196.874 227.239 197.404 221.696C197.934 216.154 199.825 210.829 202.909 206.194C205.994 201.559 210.175 197.757 215.083 195.128C219.99 192.499 225.471 191.123 231.039 191.122C231.609 191.122 232.175 191.135 232.736 191.168C233.015 191.176 233.294 191.197 233.568 191.218C238.315 191.578 242.933 192.936 247.119 195.203C251.305 197.47 254.965 200.596 257.86 204.375C260.755 208.154 262.82 212.502 263.919 217.134C265.018 221.766 265.126 226.578 264.237 231.255Z" fill="#3F3D56"/>
<path d="M223.268 205.212C223.086 203.304 220.749 202.13 218.922 202.706C217.094 203.282 215.894 205.122 215.532 207.004C215.357 207.796 215.341 208.615 215.483 209.414C215.626 210.213 215.925 210.976 216.363 211.659C217.287 212.988 218.984 213.818 220.568 213.481C222.375 213.095 223.628 211.33 223.986 209.517C224.344 207.704 223.988 205.835 223.633 204.021L223.268 205.212Z" fill="#2F2E41"/>
<path d="M248.989 207.936C248.808 206.029 246.471 204.854 244.643 205.43C242.815 206.007 241.615 207.847 241.253 209.728C241.078 210.521 241.062 211.34 241.204 212.139C241.347 212.938 241.646 213.7 242.084 214.383C243.008 215.713 244.706 216.543 246.289 216.205C248.096 215.82 249.349 214.055 249.707 212.242C250.065 210.429 249.71 208.56 249.354 206.746L248.989 207.936Z" fill="#2F2E41"/>
<path d="M165.067 63.3364C159.717 66.7621 153.519 68.6301 147.168 68.7311C140.816 68.8322 134.561 67.1623 129.105 63.9086C130.065 62.122 131.281 60.4854 132.715 59.051C134.927 56.8282 137.62 55.1421 140.585 54.1222C143.551 53.1023 146.711 52.7758 149.823 53.1677C152.934 53.5597 155.914 54.6597 158.534 56.3832C161.154 58.1067 163.345 60.4078 164.936 63.1099C164.979 63.1828 165.025 63.2597 165.067 63.3364Z" fill="#BCE7F0"/>
<path d="M145.585 44.9741C154.959 44.9741 162.558 37.3748 162.558 28.0007C162.558 18.6266 154.959 11.0273 145.585 11.0273C136.211 11.0273 128.611 18.6266 128.611 28.0007C128.611 37.3748 136.211 44.9741 145.585 44.9741Z" fill="#2F2E41"/>
<path d="M156.551 39.9727C159.897 33.8508 157.647 26.175 151.525 22.8285C145.403 19.4819 137.728 21.7318 134.381 27.8538C131.035 33.9757 133.284 41.6514 139.406 44.9979C145.528 48.3445 153.204 46.0946 156.551 39.9727Z" fill="#FFB8B8"/>
<path d="M133.856 25.967C136.743 27.9566 140.169 29.0155 143.675 29.0015C142.424 29.8687 141.001 30.4544 139.502 30.7184C144.163 31.7183 148.981 31.7454 153.653 30.7979C154.692 30.6314 155.694 30.2872 156.616 29.7804C157.075 29.5239 157.475 29.1736 157.791 28.7523C158.106 28.3309 158.328 27.848 158.445 27.3349C158.755 25.5612 157.373 23.9497 155.937 22.8636C153.738 21.2262 151.202 20.0981 148.513 19.5608C145.825 19.0235 143.05 19.0906 140.391 19.7572C138.654 20.206 136.915 20.9644 135.787 22.3591C134.659 23.7537 134.325 25.9037 135.399 27.3397L133.856 25.967Z" fill="#2F2E41"/>
<path d="M146.625 0C137.462 0.0101877 128.678 3.6543 122.198 10.1329C115.719 16.6116 112.074 25.3958 112.062 34.5585C112.064 37.3536 112.408 40.1381 113.086 42.8497C113.157 43.1284 113.227 43.4072 113.302 43.6817C115.296 50.9909 119.638 57.4414 125.66 62.0386C131.682 66.6359 139.049 69.1246 146.625 69.1212C154.203 69.121 161.571 66.6312 167.595 62.0349C173.62 57.4385 177.967 50.9902 179.969 43.6817C180.044 43.403 180.115 43.1284 180.181 42.8497C181.434 37.7588 181.514 32.4496 180.413 27.3234C179.313 22.1973 177.061 17.3885 173.828 13.2607C170.596 9.13287 166.467 5.79405 161.754 3.49671C157.042 1.19938 151.868 0.00366783 146.625 0ZM179.391 42.8497C179.324 43.1284 179.249 43.4072 179.17 43.6817C177.767 48.6807 175.23 53.2892 171.758 57.1499C168.286 61.0106 163.972 64.0197 159.149 65.944C154.327 67.8683 149.126 68.6559 143.95 68.2459C138.774 67.836 133.762 66.2393 129.302 63.5798C121.891 59.1198 116.455 52.0052 114.101 43.6817C114.022 43.403 113.947 43.1284 113.876 42.8497C113.183 40.1405 112.832 37.355 112.832 34.5585C112.838 29.7716 113.86 25.0404 115.832 20.6784C117.803 16.3164 120.679 12.4231 124.269 9.25631C127.859 6.08956 132.08 3.72166 136.654 2.30945C141.228 0.897244 146.05 0.47296 150.8 1.0647C155.55 1.65643 160.121 3.25069 164.208 5.74186C168.296 8.23304 171.808 11.5643 174.511 15.5149C177.214 19.4656 179.047 23.9455 179.888 28.6579C180.729 33.3704 180.56 38.2078 179.391 42.8497Z" fill="#3F3D56"/>
<path d="M53.0048 183.206C47.6554 186.631 41.4576 188.5 35.1061 188.601C28.7546 188.703 22.5003 187.033 17.0443 183.78C17.1024 183.667 17.1648 183.555 17.2314 183.447C18.9815 180.292 21.532 177.654 24.626 175.799C27.72 173.944 31.2483 172.936 34.8555 172.879C38.4627 172.821 42.0215 173.715 45.1733 175.47C48.3252 177.225 50.9589 179.78 52.8091 182.877C52.8341 182.91 52.8548 182.948 52.8758 182.981C52.9174 183.052 52.9631 183.131 53.0048 183.206Z" fill="#B4DE95"/>
<path d="M50.4961 147.869C50.496 151.226 49.5006 154.508 47.6355 157.299C45.7704 160.09 43.1195 162.266 40.018 163.55C36.9166 164.835 33.5038 165.171 30.2113 164.516C26.9188 163.861 23.8944 162.245 21.5206 159.871C19.1469 157.497 17.5303 154.473 16.8754 151.18C16.2205 147.888 16.5566 144.475 17.8413 141.374C19.126 138.272 21.3015 135.621 24.0928 133.756C26.884 131.891 30.1656 130.896 33.5227 130.896C35.7546 130.885 37.9666 131.317 40.0307 132.166C42.0948 133.015 43.9702 134.265 45.5485 135.843C47.1267 137.422 48.3766 139.297 49.2258 141.361C50.075 143.425 50.5067 145.637 50.4961 147.869Z" fill="#2F2E41"/>
<path d="M46.8225 158.415C46.6283 158.904 46.4046 159.38 46.1528 159.842C44.5456 162.781 41.8365 164.962 38.6215 165.905C35.4064 166.847 31.9487 166.474 29.0088 164.867C27.5519 164.072 26.2659 162.998 25.2244 161.706C24.1829 160.413 23.4063 158.929 22.9388 157.336C22.4714 155.744 22.3224 154.075 22.5002 152.424C22.6781 150.774 23.1794 149.175 23.9755 147.719C24.7716 146.263 25.8468 144.977 27.1398 143.937C28.4327 142.896 29.9181 142.121 31.5109 141.654C33.1038 141.188 34.7729 141.04 36.4229 141.219C38.0729 141.398 39.6715 141.901 41.1273 142.698C43.8279 144.174 45.8967 146.586 46.9453 149.48C47.9939 152.374 47.9503 155.551 46.8225 158.415Z" fill="#A0616A"/>
<path d="M59.7234 130.77C59.4571 130.479 59.1784 130.192 58.8914 129.913C54.2687 125.332 48.4458 122.15 42.0936 120.734C35.7414 119.318 29.1183 119.725 22.9875 121.909C16.8567 124.093 11.4676 127.964 7.44109 133.077C3.41462 138.19 0.914637 144.337 0.22918 150.809C-0.456278 157.281 0.700679 163.815 3.56676 169.658C6.43284 175.501 10.8914 180.416 16.4288 183.835C21.9661 187.255 28.3569 189.04 34.8649 188.986C41.3728 188.932 47.733 187.041 53.2128 183.529C55.2592 182.216 57.1625 180.692 58.8914 178.982C59.1743 178.704 59.453 178.421 59.7234 178.13C65.7596 171.723 69.1212 163.252 69.1212 154.45C69.1212 145.647 65.7596 137.177 59.7234 130.77ZM58.8914 177.888C57.0644 179.781 55.0232 181.455 52.8092 182.876C52.8051 182.88 52.8008 182.88 52.7968 182.885C47.507 186.271 41.3788 188.118 35.0986 188.218C28.8185 188.318 22.6345 186.667 17.2397 183.45C17.2357 183.45 17.2357 183.446 17.2314 183.446C13.0938 180.979 9.53167 177.655 6.78385 173.698C4.03603 169.742 2.16608 165.243 1.29941 160.504C0.432746 155.765 0.5894 150.896 1.75887 146.223C2.92835 141.549 5.08359 137.18 8.08007 133.408C11.0765 129.636 14.845 126.548 19.1326 124.352C23.4202 122.156 28.1279 120.902 32.9399 120.674C37.752 120.446 42.5571 121.25 47.033 123.031C51.5088 124.813 55.552 127.531 58.8914 131.003C59.1784 131.294 59.453 131.594 59.7234 131.898C65.279 138.094 68.3515 146.123 68.3515 154.446C68.3515 162.768 65.279 170.797 59.7234 176.994C59.4571 177.297 59.1784 177.597 58.8914 177.888Z" fill="#3F3D56"/>
<path d="M47.2792 133.773C46.4431 132.354 45.2309 131.193 43.7767 130.419C42.3224 129.646 40.6826 129.289 39.0383 129.388C37.3124 129.518 35.6704 130.154 34.058 130.783L25.8605 133.98C23.7394 134.808 21.4162 135.821 20.4958 137.904C19.6414 139.837 20.2788 142.069 20.924 144.081L23.991 153.647C24.4113 151.498 24.8381 149.328 25.729 147.328C26.6199 145.328 28.0289 143.484 29.977 142.484C32.1062 141.392 34.6159 141.415 37.0063 141.53C40.3917 141.693 44.0725 142.123 46.4778 144.511C47.7547 145.867 48.6204 147.558 48.9742 149.387C49.3224 151.205 49.4977 153.053 49.4977 154.905C50.8859 152.519 52.0553 150.012 52.9916 147.415C53.7617 145.481 54.2006 143.431 54.2898 141.351C54.3081 139.275 53.7201 137.132 52.3352 135.584C50.9503 134.036 48.6937 133.201 46.7092 133.813" fill="#2F2E41"/>
<path d="M21.4301 88.1306L20.5981 88.1208C20.608 87.2888 20.632 86.4444 20.6694 85.6113L21.5006 85.6487C21.4636 86.4726 21.4399 87.3077 21.4301 88.1306Z" fill="#E6E6E6"/>
<path d="M21.866 80.8972L21.0389 80.807C21.2126 79.2167 21.4401 77.6128 21.7151 76.0399L22.5348 76.1833C22.2628 77.7385 22.0378 79.3246 21.866 80.8972ZM23.506 71.522L22.6974 71.3262C23.0739 69.7724 23.5063 68.2112 23.9826 66.6854L24.7769 66.9332C24.3059 68.4419 23.8783 69.9859 23.506 71.522ZM26.3443 62.4314L25.5678 62.1324C26.1424 60.6398 26.7738 59.1461 27.4442 57.6929L28.1997 58.0415C27.5368 59.4785 26.9125 60.9554 26.3443 62.4314ZM30.3347 53.7812L29.6034 53.3847C30.3651 51.9798 31.1833 50.5804 32.0353 49.2253L32.7397 49.6682C31.8972 51.0082 31.0881 52.3919 30.3347 53.7812ZM35.4035 45.7186L34.729 45.2315C35.6651 43.9353 36.6556 42.6525 37.6728 41.4189L38.3147 41.9483C37.3087 43.1683 36.3293 44.4366 35.4035 45.7186ZM41.4608 38.3723L40.854 37.8031C41.9471 36.638 43.0929 35.4925 44.2594 34.3982L44.8286 35.0052C43.675 36.0873 42.5418 37.2201 41.4608 38.3723ZM48.4041 31.8603L47.8748 31.2183C49.1081 30.2015 50.3903 29.2116 51.6857 28.2764L52.1728 28.9508C50.8917 29.8759 49.6238 30.8548 48.4041 31.8603ZM56.1195 26.2893L55.6766 25.5849C57.0299 24.7342 58.4278 23.917 59.8315 23.1558L60.2281 23.8871C58.8401 24.6399 57.4577 25.448 56.1195 26.2893ZM64.4819 21.7552L64.1333 20.9996C65.5832 20.3306 67.074 19.7003 68.5643 19.1261L68.8634 19.9024C67.3897 20.4702 65.9156 21.0936 64.4819 21.7552ZM73.354 18.3373L73.1058 17.543C74.6308 17.0663 76.192 16.6332 77.7459 16.256L77.9422 17.0645C76.4057 17.4376 74.862 17.8658 73.354 18.3373ZM82.6029 16.0912L82.4593 15.2718C84.0319 14.9961 85.6356 14.768 87.2262 14.5938L87.3167 15.4209C85.7439 15.5932 84.1579 15.8188 82.6029 16.0912Z" fill="#E6E6E6"/>
<path d="M92.0963 15.0519L92.059 14.2207C92.8924 14.1833 93.7366 14.1594 94.5684 14.1494L94.5783 14.9814C93.7556 14.9912 92.9205 15.015 92.0963 15.0519Z" fill="#E6E6E6"/>
<path d="M24.503 85.4557L23.9085 84.8729L21.0405 87.8062L18.3239 84.7314L17.7003 85.2835L21.0097 89.0276L24.503 85.4557Z" fill="#E6E6E6"/>
<path d="M91.9038 18.0547L91.321 17.4602L94.2543 14.5922L91.1796 11.8756L91.7316 11.252L95.4758 14.5614L91.9038 18.0547Z" fill="#E6E6E6"/>
<path d="M216.381 23.2786C215.648 22.8932 214.911 22.5145 214.167 22.1424L214.54 21.3984C215.288 21.7728 216.031 22.1541 216.768 22.5422L216.381 23.2786Z" fill="#E6E6E6"/>
<path d="M272.919 176.842L272.149 176.527C272.775 174.999 273.377 173.441 273.939 171.895L274.721 172.179C274.156 173.735 273.55 175.304 272.919 176.842ZM276.33 167.446L275.538 167.194C276.036 165.623 276.509 164.021 276.942 162.432L277.745 162.651C277.309 164.251 276.833 165.864 276.33 167.446ZM278.962 157.801L278.15 157.616C278.519 156.008 278.858 154.372 279.159 152.753L279.977 152.906C279.674 154.535 279.332 156.182 278.962 157.801ZM280.79 147.972L279.966 147.854C280.201 146.222 280.404 144.564 280.571 142.925L281.399 143.009C281.231 144.659 281.026 146.329 280.79 147.972ZM281.802 138.025L280.971 137.975C281.071 136.33 281.137 134.661 281.168 133.012L282 133.028C281.968 134.688 281.902 136.369 281.802 138.025ZM281.992 128.028L281.161 128.046C281.145 127.322 281.122 126.599 281.093 125.877C281.056 124.95 281.008 124.01 280.949 123.083L281.779 123.031C281.838 123.964 281.887 124.911 281.925 125.843C281.954 126.571 281.976 127.299 281.992 128.028ZM280.535 118.136C280.363 116.497 280.156 114.84 279.918 113.21L280.741 113.09C280.981 114.731 281.19 116.399 281.362 118.05L280.535 118.136ZM279.101 108.312C278.797 106.694 278.455 105.058 278.085 103.451L278.896 103.264C279.268 104.882 279.613 106.529 279.919 108.159L279.101 108.312ZM276.871 98.6354C276.436 97.0445 275.962 95.4422 275.463 93.8725L276.256 93.6203C276.758 95.2008 277.235 96.8141 277.674 98.4158L276.871 98.6354ZM273.861 89.1707C273.298 87.6212 272.696 86.0622 272.07 84.5371L272.84 84.2213C273.47 85.757 274.076 87.3265 274.643 88.8865L273.861 89.1707ZM270.091 79.98C269.404 78.481 268.676 76.976 267.929 75.5069L268.67 75.1295C269.423 76.6087 270.156 78.1238 270.848 79.633L270.091 79.98ZM265.585 71.1254C264.778 69.6878 263.93 68.2471 263.064 66.8432L263.772 66.4067C264.644 67.82 265.498 69.2707 266.31 70.7182L265.585 71.1254ZM260.37 62.6675C259.447 61.2998 258.484 59.933 257.507 58.6052L258.177 58.112C259.161 59.4489 260.131 60.8252 261.06 62.2024L260.37 62.6675ZM254.478 54.6634C253.446 53.3752 252.373 52.092 251.29 50.8495L251.917 50.3028C253.008 51.5539 254.088 52.8459 255.128 54.143L254.478 54.6634ZM247.947 47.1698C246.811 45.9706 245.636 44.78 244.454 43.6306L245.034 43.034C246.224 44.1913 247.408 45.3904 248.551 46.5975L247.947 47.1698ZM240.818 40.238C239.587 39.137 238.318 38.0469 237.044 36.9981L237.572 36.3557C238.855 37.4119 240.134 38.5095 241.373 39.6181L240.818 40.238ZM233.138 33.9164C231.826 32.924 230.473 31.9436 229.116 31.0026L229.59 30.3188C230.956 31.2664 232.319 32.2535 233.64 33.2527L233.138 33.9164ZM224.978 28.2565C223.589 27.3751 222.161 26.5087 220.731 25.681L221.148 24.9609C222.587 25.7941 224.026 26.6666 225.424 27.5539L224.978 28.2565Z" fill="#E6E6E6"/>
<path d="M269.861 183.701L269.112 183.339C269.473 182.591 269.826 181.84 270.17 181.088L270.927 181.434C270.58 182.192 270.225 182.947 269.861 183.701Z" fill="#E6E6E6"/>
<path d="M215.21 26.0816L215.995 25.805L214.627 21.9373L218.585 20.8556L218.365 20.0527L213.545 21.3707L215.21 26.0816Z" fill="#E6E6E6"/>
<path d="M267.531 179.585L268.322 179.324L269.602 183.222L273.396 181.661L273.712 182.431L269.09 184.332L267.531 179.585Z" fill="#E6E6E6"/>
</g>
<defs>
<clipPath id="clip0_345_3008">
<rect width="282" height="259.474" fill="white"/>
</clipPath>
</defs>
</svg>
