<svg width="309" height="256" viewBox="0 0 309 256" fill="none" xmlns="http://www.w3.org/2000/svg">
<g clip-path="url(#clip0_344_1820)">
<path d="M46.9382 6.81274C46.5963 6.81336 46.2686 6.94961 46.027 7.1916C45.7855 7.4336 45.6498 7.76155 45.6498 8.10347C45.6498 8.44539 45.7855 8.77335 46.027 9.01534C46.2686 9.25733 46.5963 9.39359 46.9382 9.3942H141.176C141.518 9.39359 141.846 9.25733 142.088 9.01534C142.329 8.77335 142.465 8.44539 142.465 8.10347C142.465 7.76155 142.329 7.4336 142.088 7.1916C141.846 6.94961 141.518 6.81336 141.176 6.81274H46.9382Z" fill="#B4DE95"/>
<path d="M46.9382 14.5572C46.5959 14.5565 46.2673 14.6918 46.0247 14.9333C45.7822 15.1749 45.6455 15.5029 45.6448 15.8452C45.6441 16.1875 45.7793 16.5161 46.0209 16.7587C46.2624 17.0013 46.5905 17.1379 46.9328 17.1386H106.511C106.681 17.139 106.849 17.1058 107.006 17.0411C107.163 16.9763 107.305 16.8813 107.425 16.7614C107.545 16.6415 107.641 16.4991 107.706 16.3424C107.771 16.1856 107.804 16.0176 107.804 15.8479C107.804 15.6782 107.771 15.5102 107.706 15.3534C107.641 15.1967 107.545 15.0543 107.425 14.9344C107.305 14.8145 107.163 14.7195 107.006 14.6548C106.849 14.5901 106.681 14.5569 106.511 14.5572H46.9382Z" fill="#B4DE95"/>
<path d="M46.9382 53.3845C46.5963 53.3851 46.2686 53.5213 46.027 53.7633C45.7855 54.0053 45.6498 54.3333 45.6498 54.6752C45.6498 55.0171 45.7855 55.3451 46.027 55.5871C46.2686 55.829 46.5963 55.9653 46.9382 55.9659H141.176C141.518 55.9653 141.846 55.829 142.088 55.5871C142.329 55.3451 142.465 55.0171 142.465 54.6752C142.465 54.3333 142.329 54.0053 142.088 53.7633C141.846 53.5213 141.518 53.3851 141.176 53.3845H46.9382Z" fill="#BCE7F0"/>
<path d="M46.9382 61.1289C46.5959 61.1282 46.2673 61.2635 46.0247 61.505C45.7822 61.7466 45.6455 62.0746 45.6448 62.4169C45.6441 62.7592 45.7793 63.0878 46.0209 63.3304C46.2624 63.573 46.5905 63.7096 46.9328 63.7104H106.511C106.681 63.7107 106.849 63.6775 107.006 63.6128C107.163 63.548 107.305 63.453 107.425 63.3331C107.545 63.2133 107.641 63.0709 107.706 62.9141C107.771 62.7574 107.804 62.5893 107.804 62.4196C107.804 62.2499 107.771 62.0819 107.706 61.9252C107.641 61.7684 107.545 61.626 107.425 61.5061C107.305 61.3863 107.163 61.2912 107.006 61.2265C106.849 61.1618 106.681 61.1286 106.511 61.1289H46.9382Z" fill="#BCE7F0"/>
<path d="M46.9382 99.9562C46.5963 99.9568 46.2686 100.093 46.027 100.335C45.7855 100.577 45.6498 100.905 45.6498 101.247C45.6498 101.589 45.7855 101.917 46.027 102.159C46.2686 102.401 46.5963 102.537 46.9382 102.538H141.176C141.518 102.537 141.846 102.401 142.088 102.159C142.329 101.917 142.465 101.589 142.465 101.247C142.465 100.905 142.329 100.577 142.088 100.335C141.846 100.093 141.518 99.9568 141.176 99.9562H46.9382Z" fill="#BCE7F0"/>
<path d="M46.9382 107.701C46.5959 107.7 46.2673 107.835 46.0247 108.077C45.7822 108.318 45.6455 108.646 45.6448 108.989C45.6441 109.331 45.7793 109.66 46.0209 109.902C46.2624 110.145 46.5905 110.281 46.9328 110.282H106.511C106.681 110.282 106.849 110.249 107.006 110.185C107.163 110.12 107.305 110.025 107.425 109.905C107.545 109.785 107.641 109.643 107.706 109.486C107.771 109.329 107.804 109.161 107.804 108.991C107.804 108.822 107.771 108.654 107.706 108.497C107.641 108.34 107.545 108.198 107.425 108.078C107.305 107.958 107.163 107.863 107.006 107.798C106.849 107.734 106.681 107.7 106.511 107.701H46.9382Z" fill="#BCE7F0"/>
<path d="M12.3606 15.8981H12.3562C12.2497 15.8975 12.1445 15.8742 12.0476 15.8297C11.9508 15.7853 11.8646 15.7207 11.7946 15.6403L7.79701 11.0503C7.73205 10.976 7.68239 10.8896 7.65086 10.7961C7.61933 10.7026 7.60654 10.6038 7.61324 10.5053C7.61994 10.4069 7.64598 10.3107 7.68989 10.2223C7.73379 10.134 7.79469 10.0551 7.86911 9.9903C7.94352 9.92548 8.02998 9.87599 8.12355 9.84463C8.21711 9.81327 8.31594 9.80067 8.41438 9.80755C8.51282 9.81443 8.60894 9.84066 8.69723 9.88473C8.78553 9.9288 8.86426 9.98985 8.92893 10.0644L12.3672 14.0123L22.6891 2.43236C22.7546 2.35859 22.834 2.29845 22.9227 2.2554C23.0115 2.21235 23.1079 2.18722 23.2063 2.18146C23.3048 2.17569 23.4035 2.18941 23.4966 2.22182C23.5898 2.25422 23.6757 2.30469 23.7493 2.37032C23.823 2.43595 23.883 2.51546 23.9259 2.6043C23.9688 2.69314 23.9937 2.78956 23.9993 2.88805C24.0049 2.98655 23.991 3.08518 23.9584 3.17829C23.9258 3.27141 23.8752 3.35718 23.8094 3.43071L12.9208 15.647C12.8504 15.726 12.7641 15.7892 12.6676 15.8324C12.571 15.8757 12.4664 15.8981 12.3606 15.8981Z" fill="#B4DE95"/>
<path d="M12.452 23.9278C9.28216 23.9278 6.24212 22.6685 4.00068 20.4271C1.75923 18.1857 0.5 15.1456 0.5 11.9757C0.5 8.80584 1.75923 5.7658 4.00068 3.52436C6.24212 1.28291 9.28216 0.0236816 12.452 0.0236816C12.5613 0.0236816 12.6662 0.067103 12.7435 0.144394C12.8208 0.221685 12.8642 0.326515 12.8642 0.435821C12.8642 0.545127 12.8208 0.649957 12.7435 0.727248C12.6662 0.804539 12.5613 0.84796 12.452 0.84796C10.2512 0.847999 8.09977 1.50066 6.26984 2.72342C4.43992 3.94618 3.01368 5.68411 2.17147 7.71745C1.32927 9.75078 1.10893 11.9882 1.53832 14.1468C1.96771 16.3053 3.02754 18.2881 4.58379 19.8443C6.14005 21.4005 8.12282 22.4603 10.2814 22.8897C12.44 23.319 14.6774 23.0987 16.7107 22.2564C18.744 21.4142 20.4819 19.9879 21.7047 18.158C22.9274 16.328 23.58 14.1766 23.58 11.9757C23.58 11.8664 23.6234 11.7616 23.7007 11.6843C23.778 11.607 23.8828 11.5636 23.9921 11.5636C24.1014 11.5636 24.2063 11.607 24.2836 11.6843C24.3609 11.7616 24.4043 11.8664 24.4043 11.9757C24.4007 15.1445 23.1402 18.1825 20.8995 20.4232C18.6588 22.6638 15.6208 23.9242 12.452 23.9278Z" fill="#3F3D56"/>
<path d="M185.871 166.13H185.867C185.76 166.129 185.655 166.106 185.558 166.061C185.461 166.017 185.375 165.952 185.305 165.872L181.308 161.282C181.243 161.208 181.193 161.121 181.162 161.028C181.13 160.934 181.117 160.835 181.124 160.737C181.131 160.639 181.157 160.542 181.201 160.454C181.244 160.366 181.305 160.287 181.38 160.222C181.454 160.157 181.541 160.108 181.634 160.076C181.728 160.045 181.827 160.032 181.925 160.039C182.023 160.046 182.12 160.072 182.208 160.116C182.296 160.16 182.375 160.222 182.44 160.296L185.878 164.244L196.2 152.664C196.265 152.59 196.345 152.531 196.433 152.488C196.522 152.445 196.618 152.42 196.717 152.414C196.815 152.408 196.914 152.422 197.007 152.455C197.1 152.487 197.186 152.537 197.259 152.603C197.333 152.669 197.393 152.748 197.435 152.837C197.478 152.925 197.503 153.022 197.509 153.12C197.515 153.218 197.501 153.317 197.468 153.41C197.436 153.503 197.386 153.589 197.32 153.662L186.431 165.879C186.361 165.958 186.275 166.021 186.178 166.064C186.082 166.107 185.977 166.13 185.871 166.13Z" fill="#B4DE95"/>
<path d="M185.963 174.16C182.793 174.16 179.753 172.9 177.511 170.659C175.27 168.418 174.011 165.378 174.011 162.208C174.011 159.038 175.27 155.998 177.511 153.756C179.753 151.515 182.793 150.256 185.963 150.256C186.072 150.256 186.177 150.299 186.254 150.376C186.331 150.454 186.375 150.558 186.375 150.668C186.375 150.777 186.331 150.882 186.254 150.959C186.177 151.036 186.072 151.08 185.963 151.08C183.762 151.08 181.61 151.733 179.781 152.955C177.951 154.178 176.524 155.916 175.682 157.949C174.84 159.983 174.619 162.22 175.049 164.379C175.478 166.537 176.538 168.52 178.094 170.076C179.65 171.632 181.633 172.692 183.792 173.122C185.95 173.551 188.188 173.331 190.221 172.488C192.255 171.646 193.992 170.22 195.215 168.39C196.438 166.56 197.091 164.409 197.091 162.208C197.091 162.098 197.134 161.994 197.211 161.916C197.289 161.839 197.393 161.796 197.503 161.796C197.612 161.796 197.717 161.839 197.794 161.916C197.871 161.994 197.915 162.098 197.915 162.208C197.911 165.376 196.651 168.414 194.41 170.655C192.169 172.896 189.132 174.156 185.963 174.16Z" fill="#3F3D56"/>
<path d="M265.63 155.855C265.242 155.389 264.962 154.844 264.808 154.258C264.653 153.672 264.63 153.06 264.738 152.463C264.846 151.867 265.084 151.302 265.434 150.808C265.784 150.313 266.238 149.902 266.765 149.602L264.076 135.122L271.127 138.098L272.599 151.392C273.044 152.31 273.137 153.359 272.86 154.341C272.583 155.323 271.956 156.169 271.097 156.719C270.238 157.269 269.207 157.485 268.199 157.326C267.192 157.166 266.278 156.643 265.63 155.855Z" fill="#9E616A"/>
<path d="M200.263 155.855C200.651 155.389 200.932 154.844 201.086 154.258C201.24 153.672 201.264 153.06 201.156 152.463C201.047 151.867 200.81 151.302 200.46 150.808C200.109 150.313 199.655 149.902 199.128 149.602L201.817 135.122L194.766 138.098L193.294 151.392C192.849 152.31 192.756 153.359 193.033 154.341C193.31 155.323 193.937 156.169 194.797 156.719C195.656 157.269 196.687 157.485 197.694 157.326C198.702 157.166 199.616 156.643 200.263 155.855Z" fill="#9E616A"/>
<path d="M226.499 250.535H221.446L219.042 231.046H226.499L226.499 250.535Z" fill="#9E616A"/>
<path d="M227.787 255.433L211.495 255.432V255.226C211.495 253.544 212.163 251.931 213.353 250.742C214.542 249.553 216.155 248.885 217.836 248.885L227.788 248.885L227.787 255.433Z" fill="#121211"/>
<path d="M247.518 250.535H242.465L240.061 231.046H247.519L247.518 250.535Z" fill="#9E616A"/>
<path d="M248.806 255.433L232.514 255.432V255.226C232.514 253.544 233.183 251.931 234.372 250.742C235.561 249.553 237.174 248.885 238.856 248.885L248.807 248.885L248.806 255.433Z" fill="#121211"/>
<path d="M217.458 132.747L210.897 139.973L213.782 194.082L218.728 245.879H227.738L236.038 153.384L239.732 245.879H249.39L260.723 137.165L217.458 132.747Z" fill="#121211"/>
<path d="M259.118 69.8954L241.602 58.9737L239.129 52.7916H222.754L220.995 58.5616L202.861 69.6893L210.073 101.218L210.897 139.959C210.897 139.959 238.923 156.857 260.766 137.898L251.905 92.7691L259.118 69.8954Z" fill="#BCE7F0"/>
<path d="M208.424 70.3075L202.861 69.6893C202.861 69.6893 197.297 74.0168 196.472 83.496C195.648 92.9752 196.472 111.001 196.472 111.001L193.175 146.141L200.182 146.553L209.249 111.521L210.073 95.2744L208.424 70.3075Z" fill="#BCE7F0"/>
<path d="M253.348 70.3075L258.911 69.6893C258.911 69.6893 264.475 74.0168 265.3 83.496C266.124 92.9752 269.421 111.001 269.421 111.001L272.718 146.141L265.712 146.553L256.645 111.521L251.699 95.2744L253.348 70.3075Z" fill="#BCE7F0"/>
<path d="M241.431 41.3886C245.012 34.8374 242.604 26.6233 236.053 23.0421C229.502 19.4608 221.288 21.8685 217.706 28.4198C214.125 34.9711 216.533 43.1851 223.084 46.7663C229.635 50.3476 237.849 47.9399 241.431 41.3886Z" fill="#9E616A"/>
<path d="M245.011 35.1648C245.159 34.3293 244.986 33.4689 244.527 32.7552C244.969 32.0459 245.277 31.2613 245.435 30.4406C245.803 27.9816 243.92 27.0808 242.706 25.2237C242.179 24.418 242.418 24.0996 242.388 23.2434C242.338 22.0873 241.966 20.9681 241.314 20.0123C240.564 18.7693 239.763 17.4733 238.505 16.6656C235.862 14.968 232.477 16.0964 229.448 15.3722C228.113 15.0529 226.867 14.3734 225.535 14.033C224.204 13.6926 222.637 13.7809 221.865 14.7545C221.509 15.2039 221.366 15.7895 221.009 16.2382C220.299 17.13 218.952 17.2788 217.855 17.7257C215.431 18.7139 214.183 21.3277 214.236 23.9083C214.252 24.449 214.312 24.9876 214.414 25.5187C213.994 26.5017 213.788 27.5634 213.812 28.6325C213.865 31.213 215.015 33.7622 216.389 36.1146C216.581 35.379 216.847 34.6647 217.183 33.9827C217.278 33.7455 217.436 33.5387 217.64 33.3849C218.107 33.0858 218.773 33.3097 219.364 33.3332C220.587 33.3819 221.559 32.5196 222.135 31.5557C222.71 30.5917 223.027 29.4809 223.687 28.5708C223.823 28.3451 224.008 28.1529 224.229 28.0082C224.449 27.8634 224.699 27.7699 224.96 27.7345C225.419 27.7541 225.865 27.892 226.255 28.1351C228.246 29.1554 230.303 30.2637 232.486 30.4012C233.233 30.3826 233.98 30.4464 234.713 30.5913C236.367 31.0683 237.349 32.8215 237.564 34.4152C237.779 36.009 237.452 37.5795 237.581 39.1739C237.711 40.7682 238.476 42.5536 240.056 43.2574C240.223 43.353 240.42 43.379 240.605 43.33C240.727 43.2641 240.823 43.1601 240.88 43.0341L243.839 37.94C244.402 37.0974 244.8 36.1557 245.011 35.1648Z" fill="#121211"/>
<path d="M308.5 255.564C308.5 255.673 308.456 255.778 308.379 255.855C308.302 255.932 308.197 255.976 308.088 255.976H151.063C150.953 255.976 150.849 255.933 150.771 255.856C150.694 255.778 150.651 255.673 150.651 255.564C150.651 255.455 150.694 255.35 150.771 255.273C150.849 255.195 150.953 255.152 151.063 255.152H308.088C308.197 255.152 308.302 255.196 308.379 255.273C308.456 255.35 308.5 255.455 308.5 255.564Z" fill="#CACACA"/>
<path d="M143.166 34.5679H0.978088V35.3922H143.166V34.5679Z" fill="#BCE7F0"/>
<path d="M143.166 80.7274H0.978088V81.5517H143.166V80.7274Z" fill="#BCE7F0"/>
<path d="M143.166 126.887H0.978088V127.711H143.166V126.887Z" fill="#BCE7F0"/>
</g>
<defs>
<clipPath id="clip0_344_1820">
<rect width="308" height="255.953" fill="white" transform="translate(0.5 0.0236816)"/>
</clipPath>
</defs>
</svg>
