<svg width="274" height="243" viewBox="0 0 274 243" fill="none" xmlns="http://www.w3.org/2000/svg">
<g clip-path="url(#clip0_344_1786)">
<path d="M227.82 42.6169C227.815 42.6169 227.81 42.6185 227.805 42.6186V12.3543C227.805 9.07777 226.503 5.93539 224.186 3.6185C221.869 1.30161 218.727 0 215.45 0H120.7C117.423 0 114.281 1.30161 111.964 3.6185C109.647 5.93539 108.346 9.07777 108.346 12.3543V27.8694C108.084 27.875 107.835 27.9828 107.652 28.1697C107.469 28.3566 107.366 28.6077 107.366 28.8693V36.5541C107.366 36.8158 107.469 37.0669 107.652 37.2538C107.835 37.4406 108.084 37.5484 108.346 37.5539V45.6044H108.295C108.164 45.6044 108.033 45.6303 107.912 45.6807C107.79 45.731 107.68 45.8049 107.587 45.8979C107.494 45.991 107.42 46.1015 107.37 46.223C107.319 46.3446 107.293 46.4749 107.293 46.6065V61.467C107.293 61.5986 107.319 61.7289 107.37 61.8505C107.42 61.9721 107.494 62.0826 107.587 62.1756C107.68 62.2687 107.79 62.3425 107.912 62.3928C108.033 62.4432 108.164 62.4691 108.295 62.4691H108.346V68.3712H108.33C108.198 68.3712 108.068 68.3971 107.947 68.4475C107.825 68.4978 107.714 68.5717 107.621 68.6647C107.528 68.7578 107.455 68.8682 107.404 68.9898C107.354 69.1114 107.328 69.2417 107.328 69.3733V84.3791C107.328 84.5107 107.354 84.6411 107.404 84.7626C107.455 84.8842 107.528 84.9947 107.621 85.0878C107.714 85.1808 107.825 85.2546 107.947 85.305C108.068 85.3553 108.198 85.3813 108.33 85.3813H108.346V230.43C108.346 233.707 109.647 236.849 111.964 239.166C114.281 241.483 117.423 242.785 120.7 242.785H215.45C218.727 242.785 221.869 241.483 224.186 239.166C226.503 236.849 227.805 233.707 227.805 230.43V72.0458C227.81 72.0458 227.815 72.0473 227.82 72.0473C228.055 72.0473 228.287 72.0012 228.503 71.9115C228.72 71.8218 228.916 71.6904 229.082 71.5247C229.248 71.359 229.379 71.1623 229.469 70.9458C229.559 70.7293 229.605 70.4973 229.605 70.2629V44.4015C229.605 43.9282 229.417 43.4743 229.082 43.1396C228.747 42.805 228.293 42.617 227.82 42.6169Z" fill="#121211"/>
<path d="M220.428 15.8125V226.969C220.427 229.485 219.427 231.897 217.648 233.676C215.869 235.454 213.456 236.453 210.94 236.453H125.21C122.695 236.453 120.282 235.454 118.503 233.676C116.723 231.897 115.723 229.485 115.722 226.969V15.8125C115.722 13.2961 116.722 10.8827 118.501 9.10336C120.281 7.32398 122.694 6.32434 125.21 6.32434H138.039V7.98936C138.04 10.0612 138.863 12.0478 140.328 13.5128C141.793 14.9778 143.78 15.8012 145.852 15.8021H189.468C191.537 15.7976 193.52 14.9724 194.981 13.5077C196.442 12.043 197.263 10.0584 197.263 7.98936V6.34165H210.94C213.453 6.34164 215.864 7.33891 217.643 9.11455C219.422 10.8902 220.423 13.2991 220.428 15.8125Z" fill="white"/>
<path d="M81.4109 118.483C80.9039 118.287 80.3601 118.204 79.8177 118.241C79.2753 118.278 78.7475 118.433 78.2715 118.695C77.7955 118.958 77.3829 119.322 77.0628 119.761C76.7426 120.201 76.5226 120.705 76.4184 121.238L45.8685 137.85L51.2399 143.895L79.611 125.688C80.5189 125.803 81.4378 125.582 82.1934 125.065C82.949 124.549 83.4889 123.773 83.7108 122.885C83.9326 121.997 83.821 121.058 83.3972 120.247C82.9733 119.436 82.2666 118.808 81.4109 118.483Z" fill="#FFB8B8"/>
<path d="M73.6195 238.001L77.4262 235.539L69.7405 219.684L64.122 223.318L73.6195 238.001Z" fill="#FFB8B8"/>
<path d="M87.0543 234.325L75.0902 242.064L72.1002 237.441L79.6147 232.581C80.7948 231.817 82.2298 231.554 83.6041 231.849C84.9783 232.143 86.1792 232.972 86.9425 234.152L87.0543 234.325Z" fill="#2F2E41"/>
<path d="M30.9065 238.574H35.4401L37.5977 221.087H30.9065V238.574Z" fill="#FFB8B8"/>
<path d="M44.1838 242.784H29.935V237.278H38.8845C39.5804 237.278 40.2695 237.415 40.9124 237.682C41.5554 237.948 42.1396 238.338 42.6317 238.83C43.1238 239.323 43.5141 239.907 43.7804 240.55C44.0468 241.193 44.1838 241.882 44.1838 242.578V242.784Z" fill="#2F2E41"/>
<path d="M134.923 34.2669H125.577C125.347 34.2669 125.127 34.1757 124.965 34.0134C124.803 33.8511 124.711 33.631 124.711 33.4015C124.711 33.1719 124.803 32.9518 124.965 32.7895C125.127 32.6272 125.347 32.5361 125.577 32.5361H134.923C135.153 32.5361 135.373 32.6272 135.535 32.7895C135.697 32.9518 135.788 33.1719 135.788 33.4015C135.788 33.631 135.697 33.8511 135.535 34.0134C135.373 34.1757 135.153 34.2669 134.923 34.2669Z" fill="#3F3D56"/>
<path d="M134.923 36.69H125.577C125.347 36.69 125.127 36.5988 124.965 36.4365C124.803 36.2743 124.711 36.0541 124.711 35.8246C124.711 35.5951 124.803 35.375 124.965 35.2127C125.127 35.0504 125.347 34.9592 125.577 34.9592H134.923C135.153 34.9592 135.373 35.0504 135.535 35.2127C135.697 35.375 135.788 35.5951 135.788 35.8246C135.788 36.0541 135.697 36.2743 135.535 36.4365C135.373 36.5988 135.153 36.69 134.923 36.69Z" fill="#3F3D56"/>
<path d="M134.923 39.1132H125.577C125.347 39.1132 125.127 39.022 124.965 38.8597C124.803 38.6974 124.711 38.4773 124.711 38.2478C124.711 38.0183 124.803 37.7981 124.965 37.6359C125.127 37.4736 125.347 37.3824 125.577 37.3824H134.923C135.153 37.3824 135.373 37.4736 135.535 37.6359C135.697 37.7981 135.788 38.0183 135.788 38.2478C135.788 38.4773 135.697 38.6974 135.535 38.8597C135.373 39.022 135.153 39.1132 134.923 39.1132Z" fill="#3F3D56"/>
<path d="M207.371 36.7072H207.056L206.935 36.6068C207.333 36.1325 207.551 35.5332 207.551 34.9141C207.548 34.4048 207.394 33.9077 207.109 33.4857C206.824 33.0637 206.42 32.7358 205.948 32.5434C205.477 32.351 204.959 32.3028 204.46 32.4048C203.961 32.5069 203.503 32.7546 203.145 33.1167C202.786 33.4788 202.544 33.939 202.447 34.4392C202.35 34.9393 202.404 35.4568 202.602 35.9263C202.799 36.3959 203.131 36.7963 203.556 37.077C203.981 37.3577 204.48 37.5061 204.989 37.5034C205.607 37.499 206.203 37.2813 206.679 36.8872L206.796 36.9876V37.3061L208.783 39.2965L209.379 38.7011L207.371 36.7072ZM204.989 36.7072C204.635 36.7086 204.288 36.6048 203.992 36.4089C203.696 36.213 203.465 35.9339 203.328 35.6067C203.192 35.2796 203.155 34.9192 203.222 34.5711C203.29 34.223 203.46 33.9029 203.71 33.6511C203.959 33.3994 204.278 33.2274 204.626 33.1569C204.973 33.0863 205.334 33.1204 205.662 33.2549C205.99 33.3893 206.271 33.6181 206.469 33.9122C206.668 34.2063 206.774 34.5526 206.776 34.9072L206.776 34.9141C206.777 35.1482 206.732 35.3803 206.644 35.5971C206.555 35.8139 206.425 36.0112 206.261 36.1777C206.096 36.3442 205.9 36.4767 205.685 36.5675C205.469 36.6584 205.237 36.7058 205.003 36.7072C204.999 36.7072 204.994 36.7072 204.989 36.7072Z" fill="#3F3D56"/>
<path d="M153.964 66.1135H137.173C136.163 66.1135 135.195 65.7123 134.481 64.9982C133.767 64.2841 133.365 63.3156 133.365 62.3057C133.365 61.2958 133.767 60.3273 134.481 59.6132C135.195 58.8992 136.163 58.498 137.173 58.498H153.964C154.973 58.498 155.942 58.8992 156.656 59.6132C157.37 60.3273 157.771 61.2958 157.771 62.3057C157.771 63.3156 157.37 64.2841 156.656 64.9982C155.942 65.7123 154.973 66.1135 153.964 66.1135Z" fill="#BCE7F0"/>
<path d="M205.366 74.4212H135.442C134.891 74.4212 134.363 74.2024 133.974 73.8129C133.584 73.4234 133.365 72.8951 133.365 72.3443C133.365 71.7934 133.584 71.2652 133.974 70.8757C134.363 70.4862 134.891 70.2673 135.442 70.2673H205.366C205.917 70.2673 206.445 70.4862 206.835 70.8757C207.224 71.2652 207.443 71.7934 207.443 72.3443C207.443 72.8951 207.224 73.4234 206.835 73.8129C206.445 74.2024 205.917 74.4212 205.366 74.4212Z" fill="#B4DE95"/>
<path d="M161.127 82.729H135.442C134.891 82.729 134.363 82.5102 133.974 82.1207C133.584 81.7312 133.365 81.2029 133.365 80.6521C133.365 80.1012 133.584 79.573 133.974 79.1835C134.363 78.794 134.891 78.5751 135.442 78.5751H161.127C161.678 78.5751 162.206 78.794 162.596 79.1835C162.985 79.573 163.204 80.1012 163.204 80.6521C163.204 81.2029 162.985 81.7312 162.596 82.1207C162.206 82.5102 161.678 82.729 161.127 82.729Z" fill="#B4DE95"/>
<path d="M153.964 158.191H137.173C136.163 158.191 135.195 157.79 134.481 157.076C133.767 156.362 133.365 155.394 133.365 154.384C133.365 153.374 133.767 152.405 134.481 151.691C135.195 150.977 136.163 150.576 137.173 150.576H153.964C154.973 150.576 155.942 150.977 156.656 151.691C157.37 152.405 157.771 153.374 157.771 154.384C157.771 155.394 157.37 156.362 156.656 157.076C155.942 157.79 154.973 158.191 153.964 158.191Z" fill="#BCE7F0"/>
<path d="M205.366 166.499H135.442C134.891 166.499 134.363 166.28 133.974 165.891C133.584 165.501 133.365 164.973 133.365 164.422C133.365 163.871 133.584 163.343 133.974 162.954C134.363 162.564 134.891 162.345 135.442 162.345H205.366C205.917 162.345 206.445 162.564 206.835 162.954C207.224 163.343 207.443 163.871 207.443 164.422C207.443 164.973 207.224 165.501 206.835 165.891C206.445 166.28 205.917 166.499 205.366 166.499Z" fill="#B4DE95"/>
<path d="M161.127 174.807H135.442C134.891 174.807 134.363 174.588 133.974 174.199C133.584 173.809 133.365 173.281 133.365 172.73C133.365 172.179 133.584 171.651 133.974 171.261C134.363 170.872 134.891 170.653 135.442 170.653H161.127C161.678 170.653 162.206 170.872 162.596 171.261C162.985 171.651 163.204 172.179 163.204 172.73C163.204 173.281 162.985 173.809 162.596 174.199C162.206 174.588 161.678 174.807 161.127 174.807Z" fill="#B4DE95"/>
<path d="M153.964 200.769H137.173C136.163 200.769 135.195 200.368 134.481 199.653C133.767 198.939 133.365 197.971 133.365 196.961C133.365 195.951 133.767 194.983 134.481 194.269C135.195 193.554 136.163 193.153 137.173 193.153H153.964C154.973 193.153 155.942 193.554 156.656 194.269C157.37 194.983 157.771 195.951 157.771 196.961C157.771 197.971 157.37 198.939 156.656 199.653C155.942 200.368 154.973 200.769 153.964 200.769Z" fill="#BCE7F0"/>
<path d="M205.366 209.076H135.442C134.891 209.076 134.363 208.858 133.974 208.468C133.584 208.079 133.365 207.55 133.365 207C133.365 206.449 133.584 205.92 133.974 205.531C134.363 205.141 134.891 204.923 135.442 204.923H205.366C205.917 204.923 206.445 205.141 206.835 205.531C207.224 205.92 207.443 206.449 207.443 207C207.443 207.55 207.224 208.079 206.835 208.468C206.445 208.858 205.917 209.076 205.366 209.076Z" fill="#B4DE95"/>
<path d="M161.127 217.384H135.442C134.891 217.384 134.363 217.166 133.974 216.776C133.584 216.387 133.365 215.858 133.365 215.307C133.365 214.757 133.584 214.228 133.974 213.839C134.363 213.449 134.891 213.23 135.442 213.23H161.127C161.678 213.23 162.206 213.449 162.596 213.839C162.985 214.228 163.204 214.757 163.204 215.307C163.204 215.858 162.985 216.387 162.596 216.776C162.206 217.166 161.678 217.384 161.127 217.384Z" fill="#B4DE95"/>
<path d="M215.232 136.556H81.6148C80.8347 136.556 80.0868 136.245 79.5352 135.694C78.9836 135.142 78.6733 134.394 78.6724 133.614V97.2676C78.6733 96.4875 78.9836 95.7396 79.5352 95.188C80.0868 94.6364 80.8347 94.3261 81.6148 94.3253H215.232C216.012 94.3262 216.76 94.6364 217.311 95.188C217.863 95.7396 218.173 96.4875 218.174 97.2676V133.614C218.173 134.394 217.863 135.142 217.311 135.694C216.76 136.245 216.012 136.556 215.232 136.556Z" fill="#BCE7F0"/>
<path d="M33.579 179.799C34.8563 188.761 28.0924 228.465 28.8436 228.461L38.5568 228.409C38.9029 227.745 43.3614 206.321 44.7599 202.884C46.7122 198.114 48.6819 193.285 49.4503 188.189C50.1738 183.406 49.8173 178.532 49.3465 173.717C49.3684 173.573 49.3559 173.427 49.31 173.289C49.2642 173.152 49.1863 173.027 49.0829 172.926C48.9794 172.825 48.8533 172.749 48.715 172.706C48.5766 172.663 48.43 172.653 48.2872 172.678L35.2544 172.007C32.5682 171.868 31.9313 171.28 32.3398 173.917C32.6236 175.887 33.2952 177.805 33.579 179.799Z" fill="#121211"/>
<path d="M36.1406 158.008C33.4925 161.816 30.7163 166.198 31.5955 170.757C32.2636 174.219 34.9013 176.901 37.3902 179.411C47.3388 189.401 66.9555 233.481 66.9555 233.481C76.4224 227.423 66.73 233.654 76.3364 227.25C75.4849 227.184 56.1381 157.638 54.5354 157.544C48.0519 157.115 42.458 156.481 36.1406 158.008Z" fill="#121211"/>
<path d="M46.6148 121.765C45.2698 120.566 35.8173 116.867 35.8173 116.867C35.6436 116.844 35.4672 116.849 35.2951 116.882C34.7572 117.018 34.5117 117.687 34.6266 118.227C34.7415 118.768 33.7989 127.651 33.556 131.691C33.1304 138.741 37.2823 154.711 37.2457 155.2C37.1034 156.941 36.3409 158.574 35.0967 159.801C35.42 160.202 55.9579 161.007 57.3549 161.482C57.6369 161.125 55.7646 135.793 55.6784 134.362C55.5348 132.19 48.3905 123.411 46.6148 121.765Z" fill="#B4DE95"/>
<path d="M31.9663 176.731C32.453 176.489 32.8807 176.143 33.2192 175.717C33.5578 175.292 33.7989 174.798 33.9257 174.269C34.0525 173.74 34.0618 173.19 33.953 172.658C33.8443 172.125 33.62 171.623 33.2961 171.186L41.9615 123.229L33.8752 123.123L27.8576 170.546C27.1602 171.139 26.7044 171.967 26.5767 172.873C26.449 173.779 26.6582 174.701 27.1647 175.463C27.6711 176.226 28.4397 176.776 29.3246 177.01C30.2096 177.243 31.1495 177.144 31.9663 176.731Z" fill="#FFB8B8"/>
<path d="M31.8967 126.788C31.5595 126.812 31.2236 126.725 30.9413 126.539C30.4601 126.127 34.3856 119.823 35.161 119.73C37.6845 119.439 40.2806 119.342 42.728 120.024C45.1753 120.706 47.4773 122.257 48.5711 124.552C49.028 125.507 45.7153 130.315 44.2095 129.609C42.406 128.764 34.2713 126.847 31.8967 126.788Z" fill="#B4DE95"/>
<path d="M40.8035 116.35C45.8197 116.35 49.8862 112.284 49.8862 107.267C49.8862 102.251 45.8197 98.1846 40.8035 98.1846C35.7872 98.1846 31.7207 102.251 31.7207 107.267C31.7207 112.284 35.7872 116.35 40.8035 116.35Z" fill="#FFB8B8"/>
<path d="M31.8822 122.285C33.1444 122.417 34.4196 122.231 35.591 121.742C36.7624 121.254 37.7928 120.48 38.5878 119.491C39.3828 118.502 39.917 117.329 40.1416 116.08C40.3662 114.831 40.274 113.546 39.8735 112.341C39.512 111.255 38.9078 110.259 38.5768 109.162C38.2458 108.066 38.2368 106.77 38.971 105.891C40.4074 104.171 43.1761 105.253 45.3906 104.911C47.7502 104.546 49.5605 102.283 49.7493 99.9025C49.9381 97.5224 48.6975 95.1671 46.8508 93.6538C45.004 92.1405 42.6222 91.3954 40.2461 91.1619C37.1945 90.8621 34.1171 91.3529 31.3102 92.5873C28.5034 93.8216 26.0616 95.7578 24.2199 98.2094C22.3783 100.661 21.1989 103.546 20.7953 106.585C20.3917 109.625 20.7774 112.717 21.9154 115.564C22.9082 118.048 24.5297 120.362 26.8329 121.722C29.1361 123.082 32.178 123.344 34.4735 121.97" fill="#2F2E41"/>
<path d="M129.134 110.941H105.923C104.449 110.941 103.25 109.233 103.25 107.133C103.25 105.034 104.449 103.325 105.923 103.325H129.134C130.608 103.325 131.808 105.034 131.808 107.133C131.808 109.233 130.608 110.941 129.134 110.941Z" fill="white"/>
<path d="M191.52 119.249H105.327C104.776 119.249 104.247 119.03 103.858 118.64C103.468 118.251 103.25 117.723 103.25 117.172C103.25 116.621 103.468 116.093 103.858 115.703C104.247 115.314 104.776 115.095 105.327 115.095H191.52C192.071 115.095 192.599 115.314 192.988 115.703C193.378 116.093 193.597 116.621 193.597 117.172C193.597 117.723 193.378 118.251 192.988 118.64C192.599 119.03 192.071 119.249 191.52 119.249Z" fill="#B4DE95"/>
<path d="M147.281 127.556H105.327C104.776 127.556 104.247 127.338 103.858 126.948C103.468 126.559 103.25 126.03 103.25 125.48C103.25 124.929 103.468 124.4 103.858 124.011C104.247 123.621 104.776 123.403 105.327 123.403H147.281C147.832 123.403 148.36 123.621 148.75 124.011C149.139 124.4 149.358 124.929 149.358 125.48C149.358 126.03 149.139 126.559 148.75 126.948C148.36 127.338 147.832 127.556 147.281 127.556Z" fill="#B4DE95"/>
<path d="M273.732 242.308H0.2677V243H273.732V242.308Z" fill="#3F3D56"/>
</g>
<defs>
<clipPath id="clip0_344_1786">
<rect width="273.465" height="243" fill="white" transform="translate(0.2677)"/>
</clipPath>
</defs>
</svg>
